<?xml version="1.0" encoding="utf-8"?>
<!-- Generator: Adobe Illustrator 27.1.0, SVG Export Plug-In . SVG Version: 6.00 Build 0)  -->
<svg version="1.1" id="Layer_1" xmlns="http://www.w3.org/2000/svg" xmlns:xlink="http://www.w3.org/1999/xlink" x="0px" y="0px"
	 viewBox="0 0 2500 2500" style="enable-background:new 0 0 2500 2500;" xml:space="preserve">
<style type="text/css">
	.st0{fill:#0C0E0F;}
</style>
<g>
	<path class="st0" d="M1274.6,1461.5c-36.7-93.9-8.8-205.7-15-306.2c-0.8-99.7-14.3-178.3,33.9-266.6c-19.9,2.5-92.7-7.1-106.3,13.1
		c-28.5-0.2-8.7,35-10.2,52.3c-8.4,38.7,20.1,207.8-27.5,196.7c-1.5,5.4-43.6,49.6-48.9,34.9c-3.2-43.4,2.7-98.6-2.9-147.7
		c14.4-137.4,28.6-123.9-107.8-114.1c-8.7,2.9,2.9,21.9,5.8,26.3c23.3,52,7.1,124.4,5.8,181.4c11.2,83.6-2.3,104.1-56.8,32.2
		c-8.7,0,10.2-14.6,11.7-16.1c5.5-0.6,6.1-13.8,7.3-19c-4.5-0.3-2.8-4.8-9.9-2.9c-88,25.5-3.4,92.4,39.2,114.6
		c18.2,44.1,17.7,155-32,184.3c-4.6-1.8-4.8,2.5-4.3,5.8c44.8-6.8,98.9-10.7,138,13.1c17.3-22-24.3-179.8-2.9-195.9
		c25.1-11.7,51.5-20,74.1-37.7c-1.2-4,5.6-4.4,5.8-1.3c11.1,89,23.7,199.6-47,265.9c56.8,1.4,117.1-1,171,16
		C1295.3,1483.6,1279.2,1470.1,1274.6,1461.5z"/>
	<path class="st0" d="M1564.4,1239.7l21-28.3c-25.5-46.1,8.8-105.6,0-158.4c-7.9-49.1-79-163.2-138.9-129.9
		c-36.3,0-15.8-41.2-64.7-42.8c-31.4,1.9-68.6-2.7-91.6,6.9c-9.4,0-4.7,23.7-3.1,30c8.2,85.6,23.7,183.3,26.7,270.5
		c-67-31.7,9.2,149.6,6.3,174c0,0-6.3,0-6.3,0c-9.7-22.6-23.8-6.5-14.1,12.7c18.9,76.1,8.3,181,40.8,245.2c5.9-48.1,19-95,3.1-142.4
		c-1.9-5.7,5.4-2.6,8-3.4c7.4,11.4,10.6,19.4,3.2,33.7c12.2-10.1-1.6-21.3,23.7-6.3c3.5-49.5-9.9-130.5-0.1-159.2
		c8.4,2.5,12.7,14.4,0,6.2c0.1,1.1,31.2,32.2,30.5,37.4c3.3-52.7,7.1-120.7,3-180.6C1490,1271,1407.7,1302.3,1564.4,1239.7z
		 M1483.2,1172.5c-119.3,13.8-45.3-5.5-64.8-150.2c-6.3-41.7-10.4-50.7,34.8-63.2C1515,975.3,1470.6,1124.5,1483.2,1172.5z"/>
</g>
</svg>
