<?xml version="1.0" encoding="utf-8"?>
<!-- Generator: Adobe Illustrator 27.1.0, SVG Export Plug-In . SVG Version: 6.00 Build 0)  -->
<svg version="1.1" id="Layer_1" xmlns="http://www.w3.org/2000/svg" xmlns:xlink="http://www.w3.org/1999/xlink" x="0px" y="0px"
	 viewBox="0 0 737 737" style="enable-background:new 0 0 737 737;" xml:space="preserve">
<g>
	<path d="M381.8,276.5L381.8,276.5L381.8,276.5z"/>
	<path d="M62.7,267.7l8.9,35.5l35.5-8.9h8.9L204.5,640l8.9,35.5l35.5-8.9l79.8-8.9l35.5-8.9v-35.5L346.3,445
		c17.7-8.9,26.6-17.7,35.5-26.6c0,0,79.8-53.2,97.5-115.2c8.9-8.9,17.7-62,8.9-97.5c-8.9-35.5-26.6-70.9-62-88.6
		c-17.7-17.7-44.3-35.5-70.9-35.5c-62-26.6-150.7-26.6-230.5,0c-26.6,8.9-62,17.7-88.6,26.6L0.7,125.9l17.7,35.5L62.7,267.7z
		 M142.5,117c79.8-17.7,150.7-17.7,212.7,0c17.7,8.9,44.3,17.7,62,35.5c26.6,17.7,44.3,44.3,44.3,70.9
		c17.7,70.9-44.3,150.7-150.7,195l0,0l17.7,195l-79.8,8.9l-97.5-390c-8.9,0-26.6,8.9-44.3,8.9L62.7,134.7
		C80.4,134.7,115.9,125.9,142.5,117z"/>
	<path d="M302,338.6v26.6c44.3-17.7,79.8-35.5,79.8-97.5c0-35.5-44.3-70.9-97.5-53.2l0,62L302,338.6z M346.3,258.8
		c0,0,8.9,8.9,8.9,17.7c0,26.6-8.9,35.5-26.6,53.2l0,0c0-17.7-8.9-35.5-8.9-62V250C328.6,250,337.5,258.8,346.3,258.8z"/>
</g>
<g>
	<path d="M585.7,453.8c-26.6-26.6-62-35.5-97.5-8.9c-26.6,26.6-35.5,62-8.9,97.5c0,0,0,8.9,8.9,8.9L585.7,453.8
		C585.7,462.7,585.7,453.8,585.7,453.8z M488.2,515.9c-8.9-26.6,0-44.3,26.6-53.2c8.9,0,26.6,0,35.5,0L488.2,515.9z"/>
	<path d="M709.8,569L709.8,569l-26.6-35.5L665.4,507l26.6-26.6l26.6-26.6l-17.7-26.6c-26.6-44.3-70.9-79.8-124.1-88.6l124.1-44.3
		l-62-133L461.6,303.1l17.7,35.5c-26.6,8.9-44.3,17.7-62,26.6c-44.3,26.6-70.9,97.5-70.9,97.5c8.9,17.7,8.9,35.5,8.9,53.2l0,0
		c0,8.9,8.9,44.3,8.9,44.3c8.9,26.6,26.6,53.2,44.3,70.9c8.9,8.9,17.7,17.7,35.5,17.7l44.3,17.7c8.9,0,35.5,8.9,35.5,8.9
		c44.3,0,88.6,0,124.1-17.7c17.7,0,44.3-26.6,44.3-26.6l8.9-8.9l35.5-26.6L709.8,569z M630,223.4l35.5,62l-133,35.5l-8.9-17.7
		L630,223.4z M656.6,604.5c-35.5,17.7-62,26.6-106.4,26.6c-8.9,0-17.7,0-26.6,0c-70.9,0-115.2-35.5-133-88.6c0-8.9,0-8.9,0-17.7
		c0-44.3,8.9-79.8,35.5-106.4c8.9-8.9,17.7-17.7,26.6-17.7c26.6-17.7,53.2-26.6,79.8-26.6c62-8.9,115.2,26.6,141.8,70.9L532.5,551.3
		c8.9,0,17.7,0,26.6,0c26.6,0,44.3-17.7,62-26.6l44.3,53.2l8.9,17.7C674.3,595.6,665.4,604.5,656.6,604.5z"/>
</g>
</svg>
