<?xml version="1.0" encoding="utf-8"?>
<!-- Generator: Adobe Illustrator 27.1.0, SVG Export Plug-In . SVG Version: 6.00 Build 0)  -->
<svg version="1.1" id="Layer_1" xmlns="http://www.w3.org/2000/svg" xmlns:xlink="http://www.w3.org/1999/xlink" x="0px" y="0px"
	 viewBox="0 0 24 24" style="enable-background:new 0 0 24 24;" xml:space="preserve">
<g>
	<polygon points="7.3,13 7.3,13 7.3,13 	"/>
	<path d="M3.7,12.9c0,0,0.1,0.4,0.1,0.4l0.4-0.1l0.1,0l1,3.9l0.1,0.4l0.4-0.1l0.9-0.1l0.4-0.1l0-0.4l-0.2-1.9
		c0.2-0.1,0.3-0.2,0.4-0.3c0,0,0.9-0.6,1.1-1.3c0.1-0.1,0.2-0.7,0.1-1.1c-0.1-0.4-0.3-0.8-0.7-1c-0.2-0.2-0.5-0.4-0.8-0.4
		c-0.7-0.3-1.7-0.3-2.6,0c-0.3,0.1-0.7,0.2-1,0.3l-0.4,0.2l0.2,0.4L3.7,12.9z M4.6,11.2C5.5,11,6.3,11,7,11.2
		c0.2,0.1,0.5,0.2,0.7,0.4c0.3,0.2,0.5,0.5,0.5,0.8c0.2,0.8-0.5,1.7-1.7,2.2l0,0l0.2,2.2l-0.9,0.1l-1.1-4.4c-0.1,0-0.3,0.1-0.5,0.1
		l-0.5-1.2C3.9,11.4,4.3,11.3,4.6,11.2z"/>
	<path d="M6.4,13.7l0,0.3c0.5-0.2,0.9-0.4,0.9-1.1c0-0.4-0.5-0.8-1.1-0.6L6.2,13L6.4,13.7z M6.9,12.8c0,0,0.1,0.1,0.1,0.2
		c0,0.3-0.1,0.4-0.3,0.6l0,0c0-0.2-0.1-0.4-0.1-0.7l0-0.2C6.7,12.7,6.8,12.8,6.9,12.8z"/>
</g>
<g>
	<path d="M9.6,15c-0.3-0.3-0.7-0.4-1.1-0.1c-0.3,0.3-0.4,0.7-0.1,1.1c0,0,0,0.1,0.1,0.1L9.6,15C9.6,15.1,9.6,15,9.6,15z M8.5,15.7
		c-0.1-0.3,0-0.5,0.3-0.6c0.1,0,0.3,0,0.4,0L8.5,15.7z"/>
	<path d="M11,16.3L11,16.3l-0.3-0.4l-0.2-0.3l0.3-0.3l0.3-0.3l-0.2-0.3c-0.3-0.5-0.8-0.9-1.4-1l1.4-0.5l-0.7-1.5l-2,1.6l0.2,0.4
		c-0.3,0.1-0.5,0.2-0.7,0.3c-0.5,0.3-0.8,1.1-0.8,1.1C7,15.3,7,15.5,7,15.7l0,0c0,0.1,0.1,0.5,0.1,0.5c0.1,0.3,0.3,0.6,0.5,0.8
		c0.1,0.1,0.2,0.2,0.4,0.2l0.5,0.2c0.1,0,0.4,0.1,0.4,0.1c0.5,0,1,0,1.4-0.2c0.2,0,0.5-0.3,0.5-0.3c0,0,0.1-0.1,0.1-0.1l0.4-0.3
		L11,16.3z M10.1,12.4l0.4,0.7L9,13.5l-0.1-0.2L10.1,12.4z M10.4,16.7c-0.4,0.2-0.7,0.3-1.2,0.3c-0.1,0-0.2,0-0.3,0
		C8.1,17,7.6,16.6,7.4,16c0-0.1,0-0.1,0-0.2c0-0.5,0.1-0.9,0.4-1.2c0.1-0.1,0.2-0.2,0.3-0.2c0.3-0.2,0.6-0.3,0.9-0.3
		c0.7-0.1,1.3,0.3,1.6,0.8L9,16.1c0.1,0,0.2,0,0.3,0c0.3,0,0.5-0.2,0.7-0.3l0.5,0.6l0.1,0.2C10.6,16.6,10.5,16.7,10.4,16.7z"/>
</g>
</svg>
