<?xml version="1.0" encoding="utf-8"?>
<!-- Generator: Adobe Illustrator 27.1.0, SVG Export Plug-In . SVG Version: 6.00 Build 0)  -->
<svg version="1.1" id="Layer_1" xmlns="http://www.w3.org/2000/svg" xmlns:xlink="http://www.w3.org/1999/xlink" x="0px" y="0px"
	 viewBox="0 0 2500 1070" style="enable-background:new 0 0 2500 1070;" xml:space="preserve">
<style type="text/css">
	.st0{fill:#FFC500;}
</style>
<path class="st0" d="M707.6,289.2"/>
<g>
	<path class="st0" d="M514.2,549.5c37.4-2.7,49.3-9.1,67.2-20.2l2.2-1.4c56.2-34.7,85.1-117.5,60.7-173.6
		c-7.5-17.2-55.2-77.8-60.6-84.6c-14.7-18.6-38.7-48.9-43.3-58.7c-0.2-0.4-0.2-0.8-0.1-1.2c0,0,0,0,0,0c0.2-0.9,0.9-1.5,1.7-1.6
		c0.7-0.1,1.5-0.1,2.6-0.1l97.3-0.6c1.1,0,2-0.9,2-2V178c0-1.1-0.9-2.1-2.1-2l-97.1,0.6c-31.7,0-35.9,25.3-35.9,35
		c0,11.9,7.7,23.8,50.3,77.8c27.6,35.1,53,70.1,56.3,77.7c18.2,42.1-5.3,107.7-48.3,134.3c-30.6,19-25.4,19.4-252.9,19.4H199
		c-1.1,0-2-0.9-2-2V396c0-1.1,0.9-2,2-2h217c1.2,0,2.3-0.4,3.3-1l9.9-6.9c7.7-5.4,12.1-12.7,13.8-22.8c2.4-14.5,1.1-16.4-46.5-70.1
		c-56.3-63.5-62.3-75.1-59.3-115.6C340.6,131.2,381.8,64,453.8,64L767,63.5c1.1,0,2-0.9,2-2V34c0-1.1-0.9-2-2.1-2l-313.5,0.5
		c-41.3,0-79.6,17.8-107.9,50.1c-22.9,26.2-38,60.8-40.3,92.5c-3.8,53.2,8.4,72.4,67.3,138.6c17.1,19.2,33.3,37.5,38.7,45.2
		c-0.1,0.2-0.1,0.4-0.2,0.6c-0.1,0.1-0.1,0.1-0.3,0.2l-2.7,1.9c-0.3,0.2-0.7,0.4-1.2,0.4H165c-1.1,0-2,0.9-2,2V550c0,1.1,0.9,2,2,2
		h148.7C426.1,552,481.5,551.9,514.2,549.5z"/>
	<path class="st0" d="M1355,34h-196.2l-7.3,21c-13.4,39-27,78-40.6,117c-2.1-6.1-4.2-12.1-6.3-18.2l-34.2-100.4l-7.3-21.4H873.4
		L866,53.1l-41.2,117.1c-13.9-39-27.7-78-41.5-117.1l-7.7-21.4l-22,0.2l-129,1l-44.1-1l0,0l14.2,41.7l154.4,453.9l7.3,21.4h133.9
		l7.6-20.6l69.7-191.2c6,17.5,12.5,36.3,19,55.1c16,46.4,32,92.7,48.1,139.1l7.3,20.6h135.3l7.3-21.3l156.2-455L1355,34z
		 M1154.6,521h-90.1c0,0-96.2-277.7-95.8-278.8L868.2,518h-89L624.4,63l129.2,0c0,0,70.7,201.1,71.6,201.1l0,0L895.8,64l144.9-1h0
		l34.2,101c18.5,54.3,35,97.7,37.2,97.7c0,0,0.1,0,0.1,0c2.4-2.1,69.3-196.6,69.3-196.6h129.7L1154.6,521z"/>
</g>
</svg>
