<?xml version="1.0" encoding="utf-8"?>
<!-- Generator: Adobe Illustrator 27.1.0, SVG Export Plug-In . SVG Version: 6.00 Build 0)  -->
<svg version="1.1" id="Layer_1" xmlns="http://www.w3.org/2000/svg" xmlns:xlink="http://www.w3.org/1999/xlink" x="0px" y="0px"
	 viewBox="0 0 737 737" style="enable-background:new 0 0 737 737;" xml:space="preserve">
<style type="text/css">
	.st0{fill:#FFC500;}
</style>
<path class="st0" d="M317.1,365.9"/>
<g>
	<path class="st0" d="M217.1,527.8c23.1-1.7,30.5-5.6,41.5-12.5l1.4-0.9c34.7-21.5,52.6-72.6,37.5-107.3
		c-4.6-10.6-34.1-48.1-37.5-52.3c-9.1-11.5-23.9-30.2-26.8-36.3c-0.1-0.2-0.1-0.5-0.1-0.7l0,0c0.1-0.6,0.6-0.9,1.1-1
		c0.4-0.1,0.9-0.1,1.6-0.1l60.2-0.4c0.7,0,1.2-0.6,1.2-1.2v-17c0-0.7-0.6-1.3-1.3-1.2l-60,0.4c-19.6,0-22.2,15.6-22.2,21.6
		c0,7.4,4.8,14.7,31.1,48.1c17.1,21.7,32.8,43.3,34.8,48c11.3,26-3.3,66.6-29.9,83c-18.9,11.7-15.7,12-156.4,12H22.3
		c-0.7,0-1.2-0.6-1.2-1.2v-75.9c0-0.7,0.6-1.2,1.2-1.2h134.2c0.7,0,1.4-0.2,2-0.6l6.1-4.3c4.8-3.3,7.5-7.9,8.5-14.1
		c1.5-9,0.7-10.1-28.8-43.3c-34.8-39.3-38.5-46.4-36.7-71.5c2.1-28.7,27.6-70.2,72.1-70.2l193.7-0.3c0.7,0,1.2-0.6,1.2-1.2v-17
		c0-0.7-0.6-1.2-1.3-1.2l-193.8,0.3c-25.5,0-49.2,11-66.7,31c-14.2,16.2-23.5,37.6-24.9,57.2c-2.3,32.9,5.2,44.8,41.6,85.7
		c10.6,11.9,20.6,23.2,23.9,27.9c-0.1,0.1-0.1,0.2-0.1,0.4c-0.1,0.1-0.1,0.1-0.2,0.1l-1.7,1.2c-0.2,0.1-0.4,0.2-0.7,0.2H1.2
		c-0.7,0-1.2,0.6-1.2,1.2v115c0,0.7,0.6,1.2,1.2,1.2h91.9C162.7,529.4,196.9,529.3,217.1,527.8z"/>
	<path class="st0" d="M737,209.1H615.7l-4.5,13c-8.3,24.1-16.7,48.2-25.1,72.3c-1.3-3.8-2.6-7.5-3.9-11.3L561,221.1l-4.5-13.2H439.2
		l-4.6,13l-25.5,72.4c-8.6-24.1-17.1-48.2-25.7-72.4l-4.8-13.2l-13.6,0.1l-79.8,0.6l-27.3-0.6l0,0l8.8,25.8l95.5,280.6l4.5,13.2
		h82.8l4.7-12.7l43.1-118.2c3.7,10.8,7.7,22.4,11.7,34.1c9.9,28.7,19.8,57.3,29.7,86l4.5,12.7h83.7l4.5-13.2l96.6-281.3L737,209.1z
		 M613.1,510.2h-55.7c0,0-59.5-171.7-59.2-172.4L436,508.3h-55L285.3,227h79.9c0,0,43.7,124.3,44.3,124.3l0,0l43.7-123.7l89.6-0.6
		l0,0l21.1,62.4c11.4,33.6,21.6,60.4,23,60.4h0.1c1.5-1.3,42.8-121.6,42.8-121.6h80.2L613.1,510.2z"/>
</g>
</svg>
